<svg id="clock" xmlns="http://www.w3.org/2000/svg" width="300" height="300" viewBox="0 0 300 300"><path d="M150,2A148,148,0,1,0,298,150,148,148,0,0,0,150,2Zm84.2,92.6,25.7-14.8A5.9,5.9,0,0,1,268,82a6,6,0,0,1-2.2,8.1l-25.7,14.8a5.9,5.9,0,0,1-5.9-10.3ZM144.1,19.8a5.9,5.9,0,1,1,11.8,0V49.4a5.9,5.9,0,1,1-11.8,0ZM81.9,32.1A5.9,5.9,0,0,1,90,34.2l14.8,25.7a5.9,5.9,0,1,1-10.2,5.9L79.8,40.2A5.9,5.9,0,0,1,81.9,32.1ZM13.8,150a5.9,5.9,0,0,1,6-5.9H49.4a5.9,5.9,0,0,1,0,11.8H19.8A5.9,5.9,0,0,1,13.8,150Zm52,55.4L40.2,220.2a5.9,5.9,0,1,1-6-10.2l25.7-14.8a5.9,5.9,0,0,1,8.1,2.1A6,6,0,0,1,65.8,205.4ZM68,102.6a5.9,5.9,0,0,1-8.1,2.2L34.3,90a5.9,5.9,0,0,1-2.2-8.1,6,6,0,0,1,8.1-2.2L65.8,94.5A6,6,0,0,1,68,102.6Zm36.8,137.5L90,265.7a5.9,5.9,0,0,1-8.1,2.2,6,6,0,0,1-2.2-8.1l14.8-25.6a5.9,5.9,0,0,1,10.3,5.9Zm51.1,40.1a6,6,0,1,1-11.9,0V250.6a5.9,5.9,0,0,1,5.9-5.9,6,6,0,0,1,5.9,5.9ZM218,267.9a5.9,5.9,0,0,1-8.1-2.1l-14.7-25.7a5.8,5.8,0,0,1,2.1-8,5.9,5.9,0,0,1,8.1,2.1l14.8,25.7A5.8,5.8,0,0,1,218,267.9Zm2.3-227.7L205.5,65.8a5.9,5.9,0,0,1-8.1,2.2,6,6,0,0,1-2.2-8.1l14.9-25.6a5.9,5.9,0,0,1,8.1-2.2A6,6,0,0,1,220.3,40.2Zm47.6,177.9a5.9,5.9,0,0,1-8.1,2.2l-25.6-14.8a5.9,5.9,0,0,1-2.2-8.1,6,6,0,0,1,8.1-2.2L265.7,210A5.9,5.9,0,0,1,267.9,218.1ZM280.2,156H250.6a6,6,0,0,1,0-11.9h29.6a6,6,0,1,1,0,11.9Z" fill="#fff"/></svg>